<svg width="65" height="65" viewBox="0 0 65 65" fill="none" xmlns="http://www.w3.org/2000/svg">
<g clip-path="url(#clip0_0_413)">
<path d="M15.9171 36.5371V47.1665H53.275C54.3424 47.1665 55.2076 46.3012 55.2076 45.2339C55.2076 44.2955 55.2076 37.4737 55.2076 36.5371L35.5623 33.9602L15.9171 36.5371Z" fill="#8B9BA9"/>
<path d="M51.3423 36.022V43.3015H15.9171V47.1667H53.275C54.3424 47.1667 55.2076 46.3014 55.2076 45.2341C55.2076 44.3448 55.2076 37.4096 55.2076 36.5373L51.3423 36.022Z" fill="#6C7A88"/>
<path d="M56.9474 11.0691H21.7158C20.6484 11.0691 19.7832 11.9344 19.7832 13.0017V19.0243H6.8946C5.08671 19.0243 3.52027 20.2777 3.12357 22.0415L1.66084 28.5462C1.28514 30.217 1.09549 31.9244 1.09549 33.6369V47.1663H19.7832C19.7832 46.8518 19.7832 42.0718 19.7832 36.537H56.9476C58.0149 36.537 58.8802 35.6717 58.8802 34.6044V13.0017C58.88 11.9343 58.0149 11.0691 56.9474 11.0691Z" fill="#FF7E40"/>
<path d="M64.034 28.2373H58.8802V24.7693H61.4571C61.9909 24.7693 62.4234 24.3367 62.4234 23.803C62.4234 23.2694 61.9909 22.8367 61.4571 22.8367H58.8802V19.3687H62.7455C63.2793 19.3687 63.7118 18.9361 63.7118 18.4024C63.7118 17.8688 63.2793 17.4361 62.7455 17.4361H58.8802V13.968H64.034C64.5678 13.968 65.0004 13.5354 65.0004 13.0017C65.0004 12.468 64.5678 12.0354 64.034 12.0354H58.6195C58.2852 11.4583 57.6625 11.0691 56.9476 11.0691H55.015V32.6719H19.7832C19.7832 25.8734 19.7832 19.2078 19.7832 19.0242H15.9179V36.5371H13.019C10.2018 36.5371 7.63904 37.6409 5.73503 39.436H1.09549V47.1665H19.7832C19.7832 46.9043 19.7832 42.1024 19.7832 36.5371H31.695H56.9476C57.6625 36.5371 58.2852 36.1479 58.6195 35.5708H62.7455C63.2793 35.5708 63.7118 35.1382 63.7118 34.6045C63.7118 34.0708 63.2793 33.6382 62.7455 33.6382H58.8802V30.1701H64.034C64.5678 30.1701 65.0004 29.7374 65.0004 29.2038C65.0004 28.6701 64.5678 28.2373 64.034 28.2373Z" fill="#FF6344"/>
<path d="M0.966303 47.1662H8.03913V43.301H0.966303C0.432646 43.301 0 43.7337 0 44.2673V46.1999C0 46.7337 0.432646 47.1662 0.966303 47.1662Z" fill="#8B9BA9"/>
<path d="M15.9178 22.8894H6.66399L4.8266 31.0601H15.9178V22.8894Z" fill="#9DC6FB"/>
<path d="M12.2831 27.1949H5.69576L4.8266 31.0601H15.9178V22.8894H12.2831V27.1949Z" fill="#80B4FB"/>
<path d="M45.8667 53.9304C49.6024 53.9304 52.6309 50.902 52.6309 47.1662C52.6309 43.4305 49.6024 40.4021 45.8667 40.4021C42.131 40.4021 39.1026 43.4305 39.1026 47.1662C39.1026 50.902 42.131 53.9304 45.8667 53.9304Z" fill="#4D5967"/>
<path d="M47.2501 40.5449C46.4572 42.0097 46.6789 43.8784 47.9171 45.1164L43.8174 49.2162C42.5793 47.978 40.7106 47.7561 39.2457 48.5491C39.8858 51.6177 42.6113 53.9304 45.8672 53.9304C49.597 53.9304 52.6313 50.8961 52.6313 47.1663C52.6312 43.9104 50.3187 41.185 47.2501 40.5449Z" fill="#35404A"/>
<path d="M45.8664 50.0654C47.4675 50.0654 48.7654 48.7675 48.7654 47.1665C48.7654 45.5655 47.4675 44.2676 45.8664 44.2676C44.2654 44.2676 42.9675 45.5655 42.9675 47.1665C42.9675 48.7675 44.2654 50.0654 45.8664 50.0654Z" fill="#FFF9EB"/>
<path d="M13.0188 53.9304C16.7545 53.9304 19.7829 50.902 19.7829 47.1662C19.7829 43.4305 16.7545 40.4021 13.0188 40.4021C9.28304 40.4021 6.25464 43.4305 6.25464 47.1662C6.25464 50.902 9.28304 53.9304 13.0188 53.9304Z" fill="#4D5967"/>
<path d="M14.402 40.5449C13.6091 42.0097 13.8308 43.8784 15.069 45.1164L10.9693 49.2162C9.73123 47.978 7.86253 47.7561 6.39761 48.5491C7.03769 51.6177 9.76318 53.9304 13.0191 53.9304C16.7489 53.9304 19.7832 50.8961 19.7832 47.1663C19.7832 43.9104 17.4707 41.185 14.402 40.5449Z" fill="#35404A"/>
<path d="M13.0185 50.0654C14.6195 50.0654 15.9174 48.7675 15.9174 47.1665C15.9174 45.5655 14.6195 44.2676 13.0185 44.2676C11.4175 44.2676 10.1196 45.5655 10.1196 47.1665C10.1196 48.7675 11.4175 50.0654 13.0185 50.0654Z" fill="#FFF9EB"/>
<path d="M29.5608 21.8711V22.8374H30.7846C31.3183 22.8374 31.7507 23.2698 31.7507 23.8035C31.7507 24.3373 31.3183 24.7698 30.7846 24.7698H29.5608V26.7022C29.5608 27.236 29.1281 27.6685 28.5946 27.6685C28.0611 27.6685 27.6285 27.2361 27.6285 26.7022V20.905C27.6285 20.3714 28.0611 19.939 28.5946 19.939H31.5575C32.0912 19.939 32.5236 20.3714 32.5236 20.905C32.5236 21.4388 32.0912 21.8713 31.5575 21.8713H29.5608V21.8711Z" fill="#FFF9EB"/>
<path d="M38.7696 26.0216C39.145 26.4003 39.1426 27.0122 38.7638 27.3879C38.5751 27.5746 38.3293 27.668 38.0834 27.668C37.8347 27.668 37.5862 27.5727 37.3973 27.3821L35.7646 25.7357H35.2493V26.7017C35.2493 27.2355 34.8166 27.668 34.2831 27.668C33.7496 27.668 33.317 27.2356 33.317 26.7017V20.9045C33.317 20.3709 33.7496 19.9385 34.2831 19.9385H36.1674C37.7566 19.9385 39.0497 21.2389 39.0497 22.837C39.0497 23.7799 38.5994 24.6187 37.9038 25.1485L38.7696 26.0216ZM37.1172 22.837C37.1172 22.3041 36.691 21.8707 36.1674 21.8707H35.2493V23.803H36.1674C36.691 23.803 37.1172 23.3696 37.1172 22.837Z" fill="#FFF9EB"/>
<path d="M45.0384 26.7015C45.0384 27.2352 44.606 27.6678 44.0724 27.6678H41.1094C40.5759 27.6678 40.1434 27.2354 40.1434 26.7015V20.9043C40.1434 20.3706 40.5759 19.9382 41.1094 19.9382H44.0724C44.606 19.9382 45.0384 20.3706 45.0384 20.9043C45.0384 21.4381 44.606 21.8706 44.0724 21.8706H42.0756V22.8369H43.2994C43.8331 22.8369 44.2655 23.2693 44.2655 23.8031C44.2655 24.3368 43.8331 24.7694 43.2994 24.7694H42.0756V25.7355H44.0724C44.606 25.7354 45.0384 26.1678 45.0384 26.7015Z" fill="#FFF9EB"/>
<path d="M51.0341 26.7015C51.0341 27.2352 50.6017 27.6678 50.068 27.6678H47.1051C46.5716 27.6678 46.139 27.2354 46.139 26.7015V20.9043C46.139 20.3706 46.5716 19.9382 47.1051 19.9382H50.068C50.6017 19.9382 51.0341 20.3706 51.0341 20.9043C51.0341 21.4381 50.6017 21.8706 50.068 21.8706H48.0713V22.8369H49.2951C49.8288 22.8369 50.2612 23.2693 50.2612 23.8031C50.2612 24.3368 49.8288 24.7694 49.2951 24.7694H48.0713V25.7355H50.068C50.6017 25.7354 51.0341 26.1678 51.0341 26.7015Z" fill="#FFF9EB"/>
</g>
<defs>
<clipPath id="clip0_0_413">
<rect width="65" height="65" fill="white"/>
</clipPath>
</defs>
</svg>
