<svg width="15" height="15" viewBox="0 0 15 15" fill="none" xmlns="http://www.w3.org/2000/svg">
<path d="M9.375 6.25H7.5V4.375C7.5 4.20924 7.43415 4.05027 7.31694 3.93306C7.19973 3.81585 7.04076 3.75 6.875 3.75C6.70924 3.75 6.55027 3.81585 6.43306 3.93306C6.31585 4.05027 6.25 4.20924 6.25 4.375V6.25H4.375C4.20924 6.25 4.05027 6.31585 3.93306 6.43306C3.81585 6.55027 3.75 6.70924 3.75 6.875C3.75 7.04076 3.81585 7.19973 3.93306 7.31694C4.05027 7.43415 4.20924 7.5 4.375 7.5H6.25V9.375C6.25 9.54076 6.31585 9.69973 6.43306 9.81694C6.55027 9.93415 6.70924 10 6.875 10C7.04076 10 7.19973 9.93415 7.31694 9.81694C7.43415 9.69973 7.5 9.54076 7.5 9.375V7.5H9.375C9.54076 7.5 9.69973 7.43415 9.81694 7.31694C9.93415 7.19973 10 7.04076 10 6.875C10 6.70924 9.93415 6.55027 9.81694 6.43306C9.69973 6.31585 9.54076 6.25 9.375 6.25ZM13.5688 12.6813L11.25 10.3813C12.1501 9.25901 12.5859 7.83456 12.468 6.40081C12.3501 4.96706 11.6873 3.63299 10.616 2.6729C9.54461 1.71282 8.14613 1.1997 6.70808 1.23905C5.27003 1.2784 3.9017 1.86723 2.88446 2.88446C1.86723 3.9017 1.2784 5.27003 1.23905 6.70808C1.1997 8.14613 1.71282 9.54461 2.6729 10.616C3.63299 11.6873 4.96706 12.3501 6.40081 12.468C7.83456 12.5859 9.25901 12.1501 10.3813 11.25L12.6813 13.55C12.7394 13.6086 12.8085 13.6551 12.8846 13.6868C12.9608 13.7185 13.0425 13.7349 13.125 13.7349C13.2075 13.7349 13.2892 13.7185 13.3654 13.6868C13.4415 13.6551 13.5106 13.6086 13.5688 13.55C13.6814 13.4335 13.7444 13.2777 13.7444 13.1156C13.7444 12.9535 13.6814 12.7978 13.5688 12.6813ZM6.875 11.25C6.00971 11.25 5.16385 10.9934 4.44438 10.5127C3.72492 10.0319 3.16416 9.34867 2.83303 8.54924C2.50189 7.74981 2.41526 6.87015 2.58407 6.02148C2.75288 5.17281 3.16955 4.39326 3.78141 3.78141C4.39326 3.16955 5.17281 2.75288 6.02148 2.58407C6.87015 2.41526 7.74981 2.50189 8.54924 2.83303C9.34867 3.16416 10.0319 3.72492 10.5127 4.44438C10.9934 5.16385 11.25 6.00971 11.25 6.875C11.25 8.03532 10.7891 9.14812 9.96859 9.96859C9.14812 10.7891 8.03532 11.25 6.875 11.25Z" fill="#2F1AC4"/>
</svg>
