<svg width="15" height="14" viewBox="0 0 15 14" fill="none" xmlns="http://www.w3.org/2000/svg">
<path d="M12.8718 1.30976C12.1198 0.557514 11.1228 0.100157 10.062 0.0208624C9.00131 -0.0584321 7.94735 0.245603 7.09183 0.877676C6.19059 0.207336 5.06882 -0.0966287 3.95244 0.0269939C2.83606 0.150617 1.80797 0.692643 1.07523 1.54392C0.34248 2.3952 -0.0405049 3.4925 0.00339675 4.61485C0.0472984 5.7372 0.514825 6.80123 1.31183 7.59268L6.58891 12.8698C6.65476 12.9361 6.7331 12.9888 6.81942 13.0248C6.90574 13.0608 6.99832 13.0793 7.09183 13.0793C7.18534 13.0793 7.27792 13.0608 7.36424 13.0248C7.45056 12.9888 7.5289 12.9361 7.59475 12.8698L12.8718 7.59268C13.2845 7.18023 13.6119 6.6905 13.8353 6.15148C14.0587 5.61245 14.1737 5.03469 14.1737 4.45122C14.1737 3.86774 14.0587 3.28998 13.8353 2.75096C13.6119 2.21193 13.2845 1.7222 12.8718 1.30976ZM11.8731 6.59393L7.09183 11.3681L2.31058 6.59393C1.88924 6.17084 1.60223 5.63275 1.48553 5.04717C1.36884 4.46158 1.42766 3.85458 1.65463 3.3023C1.88159 2.75002 2.26659 2.27705 2.76132 1.94274C3.25606 1.60843 3.8385 1.42765 4.43558 1.42309C5.23324 1.42505 5.99752 1.7435 6.56058 2.30851C6.62643 2.3749 6.70477 2.4276 6.79109 2.46356C6.8774 2.49952 6.96999 2.51803 7.0635 2.51803C7.157 2.51803 7.24959 2.49952 7.33591 2.46356C7.42222 2.4276 7.50056 2.3749 7.56641 2.30851C8.14606 1.80622 8.89489 1.5429 9.66134 1.57186C10.4278 1.60082 11.1546 1.91988 11.6947 2.46448C12.2348 3.00907 12.5478 3.73852 12.5704 4.50519C12.593 5.27185 12.3235 6.01847 11.8164 6.59393H11.8731Z" fill="#2F1AC4"/>
</svg>
