<svg width="10" height="11" viewBox="0 0 10 11" fill="none" xmlns="http://www.w3.org/2000/svg">
<path d="M4.58333 8.25C4.67398 8.25 4.7626 8.22312 4.83797 8.17276C4.91334 8.1224 4.97209 8.05081 5.00678 7.96706C5.04147 7.88331 5.05054 7.79116 5.03286 7.70225C5.01517 7.61334 4.97152 7.53168 4.90742 7.46758C4.84332 7.40348 4.76166 7.35983 4.67275 7.34214C4.58384 7.32446 4.49169 7.33353 4.40794 7.36822C4.32419 7.40291 4.25261 7.46166 4.20224 7.53703C4.15188 7.6124 4.125 7.70102 4.125 7.79167C4.125 7.91322 4.17329 8.0298 4.25924 8.11576C4.3452 8.20171 4.46178 8.25 4.58333 8.25ZM6.875 8.25C6.96565 8.25 7.05426 8.22312 7.12964 8.17276C7.20501 8.1224 7.26375 8.05081 7.29844 7.96706C7.33313 7.88331 7.34221 7.79116 7.32453 7.70225C7.30684 7.61334 7.26319 7.53168 7.19909 7.46758C7.13499 7.40348 7.05332 7.35983 6.96442 7.34214C6.87551 7.32446 6.78335 7.33353 6.6996 7.36822C6.61585 7.40291 6.54427 7.46166 6.49391 7.53703C6.44355 7.6124 6.41667 7.70102 6.41667 7.79167C6.41667 7.91322 6.46495 8.0298 6.55091 8.11576C6.63686 8.20171 6.75344 8.25 6.875 8.25ZM6.875 6.41667C6.96565 6.41667 7.05426 6.38979 7.12964 6.33942C7.20501 6.28906 7.26375 6.21748 7.29844 6.13373C7.33313 6.04998 7.34221 5.95783 7.32453 5.86892C7.30684 5.78001 7.26319 5.69834 7.19909 5.63424C7.13499 5.57014 7.05332 5.52649 6.96442 5.50881C6.87551 5.49112 6.78335 5.5002 6.6996 5.53489C6.61585 5.56958 6.54427 5.62832 6.49391 5.7037C6.44355 5.77907 6.41667 5.86768 6.41667 5.95833C6.41667 6.07989 6.46495 6.19647 6.55091 6.28242C6.63686 6.36838 6.75344 6.41667 6.875 6.41667ZM4.58333 6.41667C4.67398 6.41667 4.7626 6.38979 4.83797 6.33942C4.91334 6.28906 4.97209 6.21748 5.00678 6.13373C5.04147 6.04998 5.05054 5.95783 5.03286 5.86892C5.01517 5.78001 4.97152 5.69834 4.90742 5.63424C4.84332 5.57014 4.76166 5.52649 4.67275 5.50881C4.58384 5.49112 4.49169 5.5002 4.40794 5.53489C4.32419 5.56958 4.25261 5.62832 4.20224 5.7037C4.15188 5.77907 4.125 5.86768 4.125 5.95833C4.125 6.07989 4.17329 6.19647 4.25924 6.28242C4.3452 6.36838 4.46178 6.41667 4.58333 6.41667ZM7.79167 0.916667H7.33333V0.458333C7.33333 0.336776 7.28504 0.220197 7.19909 0.134243C7.11314 0.0482885 6.99656 0 6.875 0C6.75344 0 6.63686 0.0482885 6.55091 0.134243C6.46495 0.220197 6.41667 0.336776 6.41667 0.458333V0.916667H2.75V0.458333C2.75 0.336776 2.70171 0.220197 2.61576 0.134243C2.5298 0.0482885 2.41322 0 2.29167 0C2.17011 0 2.05353 0.0482885 1.96758 0.134243C1.88162 0.220197 1.83333 0.336776 1.83333 0.458333V0.916667H1.375C1.01033 0.916667 0.660591 1.06153 0.402728 1.31939C0.144866 1.57726 0 1.92699 0 2.29167V8.70833C0 9.07301 0.144866 9.42274 0.402728 9.68061C0.660591 9.93847 1.01033 10.0833 1.375 10.0833H7.79167C8.15634 10.0833 8.50608 9.93847 8.76394 9.68061C9.0218 9.42274 9.16667 9.07301 9.16667 8.70833V2.29167C9.16667 1.92699 9.0218 1.57726 8.76394 1.31939C8.50608 1.06153 8.15634 0.916667 7.79167 0.916667ZM8.25 8.70833C8.25 8.82989 8.20171 8.94647 8.11576 9.03242C8.0298 9.11838 7.91322 9.16667 7.79167 9.16667H1.375C1.25344 9.16667 1.13686 9.11838 1.05091 9.03242C0.964955 8.94647 0.916667 8.82989 0.916667 8.70833V4.58333H8.25V8.70833ZM8.25 3.66667H0.916667V2.29167C0.916667 2.17011 0.964955 2.05353 1.05091 1.96758C1.13686 1.88162 1.25344 1.83333 1.375 1.83333H1.83333V2.29167C1.83333 2.41322 1.88162 2.5298 1.96758 2.61576C2.05353 2.70171 2.17011 2.75 2.29167 2.75C2.41322 2.75 2.5298 2.70171 2.61576 2.61576C2.70171 2.5298 2.75 2.41322 2.75 2.29167V1.83333H6.41667V2.29167C6.41667 2.41322 6.46495 2.5298 6.55091 2.61576C6.63686 2.70171 6.75344 2.75 6.875 2.75C6.99656 2.75 7.11314 2.70171 7.19909 2.61576C7.28504 2.5298 7.33333 2.41322 7.33333 2.29167V1.83333H7.79167C7.91322 1.83333 8.0298 1.88162 8.11576 1.96758C8.20171 2.05353 8.25 2.17011 8.25 2.29167V3.66667ZM2.29167 6.41667C2.38232 6.41667 2.47093 6.38979 2.5463 6.33942C2.62168 6.28906 2.68042 6.21748 2.71511 6.13373C2.7498 6.04998 2.75888 5.95783 2.74119 5.86892C2.72351 5.78001 2.67986 5.69834 2.61576 5.63424C2.55166 5.57014 2.46999 5.52649 2.38108 5.50881C2.29218 5.49112 2.20002 5.5002 2.11627 5.53489C2.03252 5.56958 1.96094 5.62832 1.91058 5.7037C1.86021 5.77907 1.83333 5.86768 1.83333 5.95833C1.83333 6.07989 1.88162 6.19647 1.96758 6.28242C2.05353 6.36838 2.17011 6.41667 2.29167 6.41667ZM2.29167 8.25C2.38232 8.25 2.47093 8.22312 2.5463 8.17276C2.62168 8.1224 2.68042 8.05081 2.71511 7.96706C2.7498 7.88331 2.75888 7.79116 2.74119 7.70225C2.72351 7.61334 2.67986 7.53168 2.61576 7.46758C2.55166 7.40348 2.46999 7.35983 2.38108 7.34214C2.29218 7.32446 2.20002 7.33353 2.11627 7.36822C2.03252 7.40291 1.96094 7.46166 1.91058 7.53703C1.86021 7.6124 1.83333 7.70102 1.83333 7.79167C1.83333 7.91322 1.88162 8.0298 1.96758 8.11576C2.05353 8.20171 2.17011 8.25 2.29167 8.25Z" fill="#FFA454"/>
</svg>
